inDegrees=no
num_controls=7
num_derivatives=13
num_iterations=202
num_multipliers=7
num_parameters=0
num_slacks=7
num_states=26
objective=5.794733
objective_accelerations=0.665040
objective_balance=0.022143
objective_effort=0.480599
objective_height=4.555950
objective_ligament=0.071001
solver_duration=1699.553928
status=Solve_Succeeded
success=true
DataType=double
version=3
OpenSimVersion=4.4-2022-07-23-0e9fedc
endheader
time	/jointset/ground_pelvis/pelvis_tilt/value	/jointset/ground_pelvis/pelvis_tx/value	/jointset/ground_pelvis/pelvis_ty/value	/jointset/hip_r/hip_flexion_r/value	/jointset/hip_r/hip_adduction_r/value	/jointset/hip_r/hip_rotation_r/value	/jointset/back/lumbar_extension/value	/jointset/patellofemoral_r/patellar_flexion_r/value	/jointset/knee_r/knee_flexion_r/value	/jointset/knee_r/knee_adduction_r/value	/jointset/knee_r/knee_rotation_r/value	/jointset/ankle_r/ankle_angle_r/value	/jointset/subtalar_r/subtalar_angle_r/value	/jointset/ground_pelvis/pelvis_tilt/speed	/jointset/ground_pelvis/pelvis_tx/speed	/jointset/ground_pelvis/pelvis_ty/speed	/jointset/hip_r/hip_flexion_r/speed	/jointset/hip_r/hip_adduction_r/speed	/jointset/hip_r/hip_rotation_r/speed	/jointset/back/lumbar_extension/speed	/jointset/patellofemoral_r/patellar_flexion_r/speed	/jointset/knee_r/knee_flexion_r/speed	/jointset/knee_r/knee_adduction_r/speed	/jointset/knee_r/knee_rotation_r/speed	/jointset/ankle_r/ankle_angle_r/speed	/jointset/subtalar_r/subtalar_angle_r/speed	/forceset/tau_hip_flexion_r	/forceset/tau_hip_adduction_r	/forceset/tau_hip_rotation_r	/forceset/tau_knee_flexion_r	/forceset/tau_ankle_angle_r	/forceset/tau_subtalar_angle_r	/forceset/tau_lumbar_extension	lambda_cid13_p0	lambda_cid14_p0	lambda_cid14_p1	lambda_cid14_p2	lambda_cid14_p3	lambda_cid14_p4	lambda_cid14_p5	/jointset/ground_pelvis/pelvis_tilt/accel	/jointset/ground_pelvis/pelvis_tx/accel	/jointset/ground_pelvis/pelvis_ty/accel	/jointset/hip_r/hip_flexion_r/accel	/jointset/hip_r/hip_adduction_r/accel	/jointset/hip_r/hip_rotation_r/accel	/jointset/back/lumbar_extension/accel	/jointset/patellofemoral_r/patellar_flexion_r/accel	/jointset/knee_r/knee_flexion_r/accel	/jointset/knee_r/knee_adduction_r/accel	/jointset/knee_r/knee_rotation_r/accel	/jointset/ankle_r/ankle_angle_r/accel	/jointset/subtalar_r/subtalar_angle_r/accel	gamma_cid13_p0	gamma_cid14_p0	gamma_cid14_p1	gamma_cid14_p2	gamma_cid14_p3	gamma_cid14_p4	gamma_cid14_p5
1	-0.266776616753262	-0.01706075075053773	0.6127826947257042	1.512871302363319	-0.2402235325379107	-0.07421686191576643	-0.7853970578921613	1.562323687203653	1.562323687203617	-0.1745292137089196	0.1745302735555166	0.4362456636740628	0.171844595163259	0.06935539069355035	0.005165976472910049	0.01683115053002877	-0.1032212525985868	-0.000834561862198607	-0.003035652098535534	-8.678610450783874e-05	-0.02068005037539703	-0.02068005037539702	0.003677097657213173	-0.0004065359842182215	0.01312038419216916	0.005169668925766145	-0.3561344234474526	0.01495173943371587	0.007384681673129572	-0.4635109482066165	-0.02619208302752286	0.01257124163616149	0.3711322902811423	-0.04038244307557958	-59.7107929267244	-7.286445165549261	4.200702956855406	7.329086193208181	-777.1264308566422	77.03622286376653	1.327632469524217	0.1559637142395354	1.954547971898306	-5.823175909141645	0.2446102317021742	-0.7288576865443921	-0.02716634901830747	-5.236053791858065	-5.236053791858071	0.6150270698479015	-0.02282011806651192	-0.8897617229166679	0.02733663646373679	1.128301324522149e-09	8.816849024123925e-10	7.518170240726465e-09	6.805859370942879e-09	-2.20117481317062e-10	-5.921502061715383e-09	1.271535475669219e-08
1.01	-0.2660174305242274	-0.01700126369845876	0.6130486040583267	1.511548842828638	-0.2402196508818113	-0.07428065835391925	-0.7853981539700549	1.56185544284613	1.561855442846124	-0.1744586885404042	0.1745247366392879	0.4363323118856806	0.1718975424251158	0.08247230167347362	0.006737975261303446	0.03634984716827891	-0.1612663159730311	0.001605033454298995	-0.009670124075555141	-9.380307057098648e-05	-0.07297167641268908	-0.07297167641269243	0.01049312339138924	-0.0006925967997784665	0.004204799351579498	0.00540479924282917	-0.355859150418018	0.01491006331184833	0.007476569217173813	-0.463783964667715	-0.02592068909403944	0.01256379140852476	0.3711379455282336	-0.0403880679342573	-59.62667934477692	-7.277382262167129	4.202032936774011	7.215063114517907	-777.1985222419255	77.10412729953397	1.302289041982425	0.1587982868256633	1.950397523484513	-5.794519357997706	0.2427602588080152	-0.6227131757538289	0.01832458035841171	-5.226146444497141	-5.226146444497674	0.7246680953073417	-0.03025069224670898	-0.8931257065666326	0.01936381734309713	5.665998946041125e-09	7.75581287936101e-09	3.597406978039922e-08	3.853107144975764e-08	-4.319451195925747e-09	-1.323798093308386e-08	7.591834280490408e-08
1.02	-0.2651273614594414	-0.0169258605933586	0.6135096737600712	1.509646063098927	-0.2401915480571105	-0.07440919375633913	-0.7853981614268745	1.560864196341267	1.560864196341294	-0.1743180475605234	0.1745165887890845	0.436329670480581	0.1719523935077464	0.09553195784363629	0.008349187077150383	0.05586322435437242	-0.2192852916035531	0.004009671858175118	-0.01598344495149992	0.0001309379937119894	-0.1252804798432757	-0.1252804798432833	0.01770025992976176	-0.0009287227731717369	-0.004737539166470063	0.005550433080509749	-0.3555838773886043	0.01486838718997369	0.007568456761218755	-0.4640569811288137	-0.02564929516055425	0.01255634118087559	0.3711436007753052	-0.04040095884662231	-59.5497827419036	-7.266604264788982	4.199686670728674	7.101522647849122	-777.3858589995623	77.19932883058584	1.316181507572075	0.1638063197302769	1.95348408146698	-5.817958360357193	0.2376188491778215	-0.664627466329477	0.0191852570505472	-5.239489270516966	-5.239489270517137	0.6932492306872131	-0.01283314963299416	-0.8951124584085908	0.009437340587170514	1.21931668951874e-08	1.756255055026956e-08	7.254894849042629e-08	8.539344475018888e-08	-9.85818743521331e-09	-2.096258600673403e-08	1.638445372471367e-07
1.03	-0.2641073251532631	-0.01683410959666995	0.6141657598365855	1.507163694670803	-0.2401395810651832	-0.0745993859382425	-0.7853932062957313	1.559349797316637	1.559349797316645	-0.1741035056624239	0.174506371252465	0.436237369254336	0.1720081874535356	0.1084307517251678	0.01001167135717016	0.07534413626834248	-0.2771369638620751	0.006378199461000779	-0.02201677117729675	0.001055287613913722	-0.1776006098905821	-0.1776006098905917	0.02525690784256051	-0.00110510906531824	-0.01373693813413211	0.005589153106592605	-0.3564626955123257	0.01515167377212954	0.007653620116002933	-0.4633457941382403	-0.02674583201150628	0.0125713258699329	0.3722435150986096	-0.04042220810979917	-59.93563022614906	-7.314008699427221	4.191656486448719	7.263407998369946	-777.9242897905129	77.08972030240861	1.270051128109374	0.1690652306533411	1.94391075922143	-5.761051962419291	0.2356575300024308	-0.5669428398498847	0.158339722557564	-5.22847138083173	-5.228471380831928	0.7941873655244214	-0.0185535061976658	-0.9044879886857807	-0.001758226918284133	1.874063556196254e-08	2.739921280989201e-08	1.092066739266815e-07	1.324102788794122e-07	-1.541161145536495e-08	-2.86913556334687e-08	2.52023009305635e-07
